<svg viewBox="0 0 100 100" xmlns="http://www.w3.org/2000/svg">
  <!-- Background -->
  <rect width="100" height="100" rx="20" fill="#F2F2F0"/>
  <!-- Body -->
  <path d="M50 30 C55 30 60 35 60 45 L60 70 C60 75 55 80 50 80 C45 80 40 75 40 70 L40 45 C40 35 45 30 50 30" fill="#dc2626"/>
  <!-- Tail -->
  <path d="M45 75 L35 85 L40 88 L50 82 L60 88 L65 85 L55 75" fill="#dc2626"/>
  <!-- Antennae short -->
  <path d="M50 30 L45 20 M50 30 L55 20" stroke="#dc2626" stroke-width="2" fill="none" stroke-linecap="round"/>
  <!-- Antennae long -->
  <path d="M50 30 C45 25 35 25 30 15 M50 30 C55 25 65 25 70 15" stroke="#dc2626" stroke-width="1.5" fill="none" stroke-linecap="round"/>
  <!-- Left claw -->
  <path d="M40 45 C30 45 20 40 15 30 C10 20 20 15 25 20 C28 23 30 30 35 35 L40 45" fill="#dc2626"/>
  <!-- Right claw -->
  <path d="M60 45 C70 45 80 40 85 30 C90 20 80 15 75 20 C72 23 70 30 65 35 L60 45" fill="#dc2626"/>
  <!-- Left legs -->
  <path d="M40 50 L30 55 M40 55 L30 60 M40 60 L30 65" stroke="#dc2626" stroke-width="2" stroke-linecap="round"/>
  <!-- Right legs -->
  <path d="M60 50 L70 55 M60 55 L70 60 M60 60 L70 65" stroke="#dc2626" stroke-width="2" stroke-linecap="round"/>
</svg>
